<svg xmlns="http://www.w3.org/2000/svg" viewBox="0 0 1200 900" role="img" aria-labelledby="t-04">
  <title id="t-04">تصميم الهوية البصرية</title>
  <defs>
    <radialGradient id="bgGlow-04" cx="50%" cy="50%" r="75%">
      <stop offset="0%" stop-color="#2b191b"/>
      <stop offset="100%" stop-color="#201113"/>
    </radialGradient>
    <radialGradient id="accentGlow-04" cx="50%" cy="50%" r="50%">
      <stop offset="0%" stop-color="#ef1c25" stop-opacity="0.55"/>
      <stop offset="100%" stop-color="#ef1c25" stop-opacity="0"/>
    </radialGradient>
  </defs>
  <rect width="1200" height="900" fill="url(#bgGlow-04)"/>
  
  
  <ellipse cx="600" cy="300" rx="380" ry="300" fill="url(#accentGlow-04)"/>
  <circle cx="870.0" cy="560.0" r="2.6" fill="#f7f5ef" opacity="0.5"/>
    <circle cx="894.0" cy="560.0" r="2.6" fill="#f7f5ef" opacity="0.5"/>
    <circle cx="918.0" cy="560.0" r="2.6" fill="#f7f5ef" opacity="0.5"/>
    <circle cx="942.0" cy="560.0" r="2.6" fill="#f7f5ef" opacity="0.5"/>
    <circle cx="966.0" cy="560.0" r="2.6" fill="#f7f5ef" opacity="0.5"/>
    <circle cx="990.0" cy="560.0" r="2.6" fill="#f7f5ef" opacity="0.5"/>
    <circle cx="870.0" cy="584.0" r="2.6" fill="#f7f5ef" opacity="0.5"/>
    <circle cx="894.0" cy="584.0" r="2.6" fill="#f7f5ef" opacity="0.5"/>
    <circle cx="918.0" cy="584.0" r="2.6" fill="#f7f5ef" opacity="0.5"/>
    <circle cx="942.0" cy="584.0" r="2.6" fill="#f7f5ef" opacity="0.5"/>
    <circle cx="966.0" cy="584.0" r="2.6" fill="#f7f5ef" opacity="0.5"/>
    <circle cx="990.0" cy="584.0" r="2.6" fill="#f7f5ef" opacity="0.5"/>
    <circle cx="870.0" cy="608.0" r="2.6" fill="#f7f5ef" opacity="0.5"/>
    <circle cx="894.0" cy="608.0" r="2.6" fill="#f7f5ef" opacity="0.5"/>
    <circle cx="918.0" cy="608.0" r="2.6" fill="#f7f5ef" opacity="0.5"/>
    <circle cx="942.0" cy="608.0" r="2.6" fill="#f7f5ef" opacity="0.5"/>
    <circle cx="966.0" cy="608.0" r="2.6" fill="#f7f5ef" opacity="0.5"/>
    <circle cx="990.0" cy="608.0" r="2.6" fill="#f7f5ef" opacity="0.5"/>
    <circle cx="870.0" cy="632.0" r="2.6" fill="#f7f5ef" opacity="0.5"/>
    <circle cx="894.0" cy="632.0" r="2.6" fill="#f7f5ef" opacity="0.5"/>
    <circle cx="918.0" cy="632.0" r="2.6" fill="#f7f5ef" opacity="0.5"/>
    <circle cx="942.0" cy="632.0" r="2.6" fill="#f7f5ef" opacity="0.5"/>
    <circle cx="966.0" cy="632.0" r="2.6" fill="#f7f5ef" opacity="0.5"/>
    <circle cx="990.0" cy="632.0" r="2.6" fill="#f7f5ef" opacity="0.5"/>
    <circle cx="870.0" cy="656.0" r="2.6" fill="#f7f5ef" opacity="0.5"/>
    <circle cx="894.0" cy="656.0" r="2.6" fill="#f7f5ef" opacity="0.5"/>
    <circle cx="918.0" cy="656.0" r="2.6" fill="#f7f5ef" opacity="0.5"/>
    <circle cx="942.0" cy="656.0" r="2.6" fill="#f7f5ef" opacity="0.5"/>
    <circle cx="966.0" cy="656.0" r="2.6" fill="#f7f5ef" opacity="0.5"/>
    <circle cx="990.0" cy="656.0" r="2.6" fill="#f7f5ef" opacity="0.5"/>
  <g opacity="0.95">
    <circle cx="470" cy="330" r="120" fill="none" stroke="#f7f5ef" stroke-width="3"/>
    <rect x="560" y="230" width="200" height="200" rx="18" fill="none" stroke="#ef1c25" stroke-width="3" transform="rotate(8 660 330)"/>
    <polygon points="430,470 560,470 495,360" fill="#ffe62c" opacity="0.92"/>
  </g>
  <text x="300" y="270" font-family="Georgia, serif" font-size="150" fill="#f7f5ef">Aa</text>
  <g transform="translate(300 520)">
    <circle cx="0" cy="0" r="16" fill="#ef1c25"/>
    <circle cx="48" cy="0" r="16" fill="#ffe62c"/>
    <circle cx="96" cy="0" r="16" fill="#f7f5ef"/>
    <circle cx="144" cy="0" r="16" fill="none" stroke="#f7f5ef" stroke-width="2.5"/>
  </g>

</svg>